<svg width="18" height="19" viewBox="0 0 18 19" fill="none" xmlns="http://www.w3.org/2000/svg">
<path d="M4.16964 14.2773C3.83782 13.8348 3.506 13.0606 2.84236 12.0651C2.51054 11.5121 1.51508 10.406 1.18326 9.96361C0.962046 9.52119 0.962046 9.29998 1.07265 8.85755C1.18326 8.19391 1.8469 7.64088 2.62114 7.64088C3.17418 7.64088 3.72721 8.0833 4.16964 8.41512C4.39085 8.63634 4.72267 9.07876 4.94388 9.29997C5.1651 9.52119 5.1651 9.63179 5.38631 9.85301C5.60752 10.1848 5.71813 10.406 5.60752 9.96361C5.49692 9.41058 5.38631 8.52573 5.1651 7.64088C5.05449 6.97724 4.94388 6.86663 4.83328 6.4242C4.72267 5.87117 4.61206 5.53935 4.50146 4.98632C4.39085 4.6545 4.28024 3.76965 4.16964 3.32722C4.05903 2.77419 4.05903 1.77873 4.50146 1.3363C4.83328 1.00448 5.49692 0.893875 5.93934 1.11509C6.49237 1.44691 6.82419 2.22115 6.9348 2.55297C7.15601 3.10601 7.37723 3.88025 7.48783 4.76511C7.70905 5.87117 8.04087 7.53027 8.04087 7.86209C8.04087 7.41966 7.93026 6.64542 8.04087 6.20299C8.15147 5.87117 8.37269 5.42874 8.81511 5.31814C9.14693 5.20753 9.47875 5.20753 9.81057 5.20753C10.1424 5.31814 10.4742 5.53935 10.6954 5.76056C11.1379 6.4242 11.1379 7.86209 11.1379 7.75148C11.2485 7.30906 11.2485 6.4242 11.4697 5.98178C11.5803 5.76056 12.0227 5.53935 12.2439 5.42874C12.5757 5.31814 13.0182 5.31814 13.35 5.42874C13.5712 5.42874 14.0136 5.76056 14.1242 5.98178C14.3454 6.3136 14.456 7.41966 14.5667 7.86209C14.5667 7.9727 14.6773 7.41966 14.8985 7.08784C15.3409 6.4242 16.8894 6.20299 17 7.75148C17 8.52573 17 8.41512 17 8.96816C17 9.52119 17 9.85301 17 10.2954C17 10.7379 16.8894 11.7333 16.7788 12.1757C16.6682 12.5076 16.3364 13.2818 16.0045 13.7242C16.0045 13.7242 14.7879 15.0515 14.6773 15.7152C14.5667 16.3788 14.5667 16.3788 14.5667 16.8212C14.5667 17.2636 14.6773 17.8167 14.6773 17.8167C14.6773 17.8167 13.7924 17.9273 13.35 17.8167C12.9076 17.7061 12.3545 16.9318 12.2439 16.6C12.0227 16.2682 11.6909 16.2682 11.4697 16.6C11.2485 17.0424 10.6954 17.8167 10.253 17.8167C9.47875 17.9273 7.93026 17.8167 6.82419 17.8167C6.82419 17.8167 7.04541 16.7106 6.60298 16.2682C6.27116 15.9364 5.71813 15.3833 5.38631 15.0515L4.16964 14.2773Z" fill="white"/>
<path d="M4.16964 14.2773C3.83782 13.8348 3.506 13.0606 2.84236 12.0651C2.51054 11.5121 1.51508 10.406 1.18326 9.96361C0.962046 9.52119 0.962046 9.29997 1.07265 8.85755C1.18326 8.19391 1.8469 7.64088 2.62114 7.64088C3.17418 7.64088 3.72721 8.0833 4.16964 8.41512C4.39085 8.63634 4.72267 9.07876 4.94388 9.29997C5.1651 9.52119 5.1651 9.63179 5.38631 9.85301C5.60752 10.1848 5.71813 10.406 5.60752 9.96361C5.49692 9.41058 5.38631 8.52573 5.1651 7.64088C5.05449 6.97724 4.94388 6.86663 4.83328 6.4242C4.72267 5.87117 4.61206 5.53935 4.50146 4.98632C4.39085 4.6545 4.28024 3.76965 4.16964 3.32722C4.05903 2.77419 4.05903 1.77873 4.50146 1.3363C4.83328 1.00448 5.49692 0.893875 5.93934 1.11509C6.49237 1.44691 6.82419 2.22115 6.9348 2.55297C7.15601 3.10601 7.37723 3.88025 7.48783 4.76511C7.70905 5.87117 8.04087 7.53027 8.04087 7.86209C8.04087 7.41966 7.93026 6.64542 8.04087 6.20299C8.15147 5.87117 8.37269 5.42874 8.81511 5.31814C9.14693 5.20753 9.47875 5.20753 9.81057 5.20753C10.1424 5.31814 10.4742 5.53935 10.6954 5.76056C11.1379 6.4242 11.1379 7.86209 11.1379 7.75148C11.2485 7.30906 11.2485 6.4242 11.4697 5.98178C11.5803 5.76056 12.0227 5.53935 12.2439 5.42874C12.5757 5.31814 13.0182 5.31814 13.35 5.42874C13.5712 5.42874 14.0136 5.76056 14.1242 5.98178C14.3454 6.3136 14.4561 7.41966 14.5667 7.86209C14.5667 7.9727 14.6773 7.41966 14.8985 7.08784C15.3409 6.4242 16.8894 6.20299 17 7.75148C17 8.52573 17 8.41512 17 8.96816C17 9.52119 17 9.85301 17 10.2954C17 10.7379 16.8894 11.7333 16.7788 12.1757C16.6682 12.5076 16.3364 13.2818 16.0045 13.7242C16.0045 13.7242 14.7879 15.0515 14.6773 15.7152C14.5667 16.3788 14.5667 16.3788 14.5667 16.8212C14.5667 17.2636 14.6773 17.8167 14.6773 17.8167C14.6773 17.8167 13.7924 17.9273 13.35 17.8167C12.9076 17.7061 12.3545 16.9318 12.2439 16.6C12.0227 16.2682 11.6909 16.2682 11.4697 16.6C11.2485 17.0424 10.6954 17.8167 10.253 17.8167C9.47875 17.9273 7.93026 17.8167 6.82419 17.8167C6.82419 17.8167 7.04541 16.7106 6.60298 16.2682C6.27116 15.9364 5.71813 15.3833 5.38631 15.0515L4.16964 14.2773Z" stroke="black" stroke-width="0.75" stroke-linecap="round" stroke-linejoin="round"/>
<path d="M13.3506 14.6093V10.8486" stroke="black" stroke-width="0.75" stroke-linecap="round"/>
<path d="M11.138 14.6093L11.0273 10.8486" stroke="black" stroke-width="0.75" stroke-linecap="round"/>
<path d="M8.92578 10.8486V14.6093" stroke="black" stroke-width="0.75" stroke-linecap="round"/>
</svg>
