<svg width="18" height="19" fill="none" xmlns="http://www.w3.org/2000/svg"><path d="M4.17 14.277c-.332-.442-.664-1.216-1.328-2.212-.331-.553-1.327-1.659-1.659-2.101-.221-.443-.221-.664-.11-1.106.11-.664.774-1.217 1.548-1.217.553 0 1.106.442 1.549.774.22.221.553.664.774.885.221.221.221.332.442.553.222.332.332.553.222.11-.111-.552-.222-1.437-.443-2.322-.11-.664-.221-.774-.332-1.217-.11-.553-.22-.885-.332-1.438-.11-.332-.22-1.216-.331-1.659-.111-.553-.111-1.548.331-1.99.332-.333.996-.443 1.438-.222.553.332.885 1.106.996 1.438.221.553.442 1.327.553 2.212.221 1.106.553 2.765.553 3.097 0-.442-.11-1.217 0-1.659.11-.332.332-.774.774-.885.332-.11.664-.11.996-.11.331.11.663.331.884.553.443.663.443 2.101.443 1.99.11-.442.11-1.327.332-1.77.11-.22.553-.442.774-.552.332-.11.774-.11 1.106 0 .221 0 .664.332.774.553.221.332.332 1.438.443 1.88 0 .11.11-.442.332-.774.442-.664 1.99-.885 2.101.663v2.544c0 .443-.11 1.438-.221 1.88-.11.333-.443 1.107-.774 1.55 0 0-1.217 1.327-1.328 1.99-.11.664-.11.664-.11 1.106 0 .443.11.996.11.996s-.885.11-1.327 0c-.442-.11-.995-.885-1.106-1.217-.221-.332-.553-.332-.774 0-.222.442-.775 1.217-1.217 1.217-.774.11-2.323 0-3.429 0 0 0 .221-1.106-.221-1.549l-1.217-1.216-1.216-.775z" fill="#fff"/><path d="M4.17 14.277c-.332-.442-.664-1.216-1.328-2.212-.331-.553-1.327-1.659-1.659-2.101-.221-.443-.221-.664-.11-1.106.11-.664.774-1.217 1.548-1.217.553 0 1.106.442 1.549.774.22.221.553.664.774.885.221.221.221.332.442.553.222.332.332.553.222.11-.111-.552-.222-1.437-.443-2.322-.11-.664-.221-.774-.332-1.217-.11-.553-.22-.885-.332-1.438-.11-.332-.22-1.216-.331-1.659-.111-.553-.111-1.548.331-1.99.332-.333.996-.443 1.438-.222.553.332.885 1.106.996 1.438.221.553.442 1.327.553 2.212.221 1.106.553 2.765.553 3.097 0-.442-.11-1.217 0-1.659.11-.332.332-.774.774-.885.332-.11.664-.11.996-.11.331.11.663.331.884.553.443.663.443 2.101.443 1.99.11-.442.11-1.327.332-1.77.11-.22.553-.442.774-.552.332-.11.774-.11 1.106 0 .221 0 .664.332.774.553.221.332.332 1.438.443 1.88 0 .11.11-.442.332-.774.442-.664 1.99-.885 2.101.663v2.544c0 .443-.11 1.438-.221 1.88-.11.333-.443 1.107-.774 1.55 0 0-1.217 1.327-1.328 1.99-.11.664-.11.664-.11 1.106 0 .443.11.996.11.996s-.885.11-1.327 0c-.442-.11-.995-.885-1.106-1.217-.221-.332-.553-.332-.774 0-.222.442-.775 1.217-1.217 1.217-.774.11-2.323 0-3.429 0 0 0 .221-1.106-.221-1.549l-1.217-1.216-1.216-.775z" stroke="#000" stroke-width=".75" stroke-linecap="round" stroke-linejoin="round"/><path d="M13.35 14.61v-3.761m-2.212 3.761l-.11-3.761m-2.102 0v3.76" stroke="#000" stroke-width=".75" stroke-linecap="round"/></svg>